<mxfile host="www.draw.io" modified="2019-11-26T10:54:58.984Z" agent="Mozilla/5.0 (Windows NT 10.0; Win64; x64) AppleWebKit/537.36 (KHTML, like Gecko) Chrome/78.0.3904.108 Safari/537.36" etag="5NTYURz39caN5vevJqww" version="12.3.1" type="github" pages="1">
  <diagram id="PYrhTQeQlfIABqhHuDHg" name="第 1 页">
    <mxGraphModel dx="1673" dy="908" grid="1" gridSize="10" guides="1" tooltips="1" connect="1" arrows="1" fold="1" page="1" pageScale="1" pageWidth="3000" pageHeight="2000" math="0" shadow="0">
      <root>
        <mxCell id="0"/>
        <mxCell id="1" parent="0"/>
        <mxCell id="SC0ZEZG3hTBKobqkoywg-1" value="&lt;h3&gt;&lt;font style=&quot;font-size: 15px&quot;&gt;http-gateway&lt;/font&gt;&lt;/h3&gt;" style="rounded=1;whiteSpace=wrap;html=1;" parent="1" vertex="1">
          <mxGeometry x="370" y="849" width="160" height="70" as="geometry"/>
        </mxCell>
        <mxCell id="SC0ZEZG3hTBKobqkoywg-2" value="&lt;h3&gt;&lt;font style=&quot;font-size: 15px&quot;&gt;route-engine&lt;/font&gt;&lt;/h3&gt;" style="rounded=1;whiteSpace=wrap;html=1;" parent="1" vertex="1">
          <mxGeometry x="630" y="1029" width="160" height="70" as="geometry"/>
        </mxCell>
        <mxCell id="SC0ZEZG3hTBKobqkoywg-3" value="&lt;h3&gt;&lt;font style=&quot;font-size: 15px&quot;&gt;dw-adapter&lt;/font&gt;&lt;/h3&gt;" style="rounded=1;whiteSpace=wrap;html=1;" parent="1" vertex="1">
          <mxGeometry x="630" y="679" width="160" height="70" as="geometry"/>
        </mxCell>
        <mxCell id="rgw8zif3fMwUPYTsho88-1" value="" style="endArrow=classic;html=1;exitX=1;exitY=0.5;exitDx=0;exitDy=0;entryX=0;entryY=0.5;entryDx=0;entryDy=0;" edge="1" parent="1" source="SC0ZEZG3hTBKobqkoywg-1" target="SC0ZEZG3hTBKobqkoywg-3">
          <mxGeometry width="50" height="50" relative="1" as="geometry">
            <mxPoint x="620" y="979" as="sourcePoint"/>
            <mxPoint x="670" y="929" as="targetPoint"/>
          </mxGeometry>
        </mxCell>
        <mxCell id="rgw8zif3fMwUPYTsho88-2" value="" style="endArrow=classic;html=1;exitX=1;exitY=0.5;exitDx=0;exitDy=0;entryX=0;entryY=0.5;entryDx=0;entryDy=0;" edge="1" parent="1" source="SC0ZEZG3hTBKobqkoywg-1" target="SC0ZEZG3hTBKobqkoywg-2">
          <mxGeometry width="50" height="50" relative="1" as="geometry">
            <mxPoint x="680" y="1009" as="sourcePoint"/>
            <mxPoint x="730" y="959" as="targetPoint"/>
          </mxGeometry>
        </mxCell>
        <mxCell id="rgw8zif3fMwUPYTsho88-10" value="" style="edgeStyle=elbowEdgeStyle;elbow=horizontal;endArrow=classic;html=1;exitX=0.5;exitY=1;exitDx=0;exitDy=0;" edge="1" parent="1" source="SC0ZEZG3hTBKobqkoywg-2" target="rgw8zif3fMwUPYTsho88-6">
          <mxGeometry width="50" height="50" relative="1" as="geometry">
            <mxPoint x="640" y="1299" as="sourcePoint"/>
            <mxPoint x="690" y="1249" as="targetPoint"/>
            <Array as="points">
              <mxPoint x="710" y="1339"/>
              <mxPoint x="710" y="1234"/>
            </Array>
          </mxGeometry>
        </mxCell>
        <mxCell id="rgw8zif3fMwUPYTsho88-17" value="" style="group" vertex="1" connectable="0" parent="1">
          <mxGeometry x="1070" y="1416" width="220" height="215" as="geometry"/>
        </mxCell>
        <mxCell id="rgw8zif3fMwUPYTsho88-14" value="" style="group" vertex="1" connectable="0" parent="rgw8zif3fMwUPYTsho88-17">
          <mxGeometry y="10" width="220" height="200" as="geometry"/>
        </mxCell>
        <mxCell id="rgw8zif3fMwUPYTsho88-11" value="&lt;font style=&quot;font-size: 15px&quot;&gt;&lt;b&gt;phoenix-clusters&lt;/b&gt;&lt;/font&gt;" style="ellipse;shape=cloud;whiteSpace=wrap;html=1;strokeWidth=1;fillColor=none;" vertex="1" parent="rgw8zif3fMwUPYTsho88-14">
          <mxGeometry width="190" height="90" as="geometry"/>
        </mxCell>
        <mxCell id="rgw8zif3fMwUPYTsho88-12" value="&lt;font style=&quot;font-size: 15px&quot;&gt;&lt;b&gt;es-clusters&lt;/b&gt;&lt;/font&gt;" style="ellipse;shape=cloud;whiteSpace=wrap;html=1;strokeWidth=1;" vertex="1" parent="rgw8zif3fMwUPYTsho88-14">
          <mxGeometry x="40" y="50" width="180" height="90" as="geometry"/>
        </mxCell>
        <mxCell id="rgw8zif3fMwUPYTsho88-13" value="&lt;font style=&quot;font-size: 15px&quot;&gt;&lt;b&gt;presto-clusters&lt;/b&gt;&lt;/font&gt;" style="ellipse;shape=cloud;whiteSpace=wrap;html=1;strokeWidth=1;" vertex="1" parent="rgw8zif3fMwUPYTsho88-14">
          <mxGeometry x="20" y="110" width="180" height="90" as="geometry"/>
        </mxCell>
        <mxCell id="rgw8zif3fMwUPYTsho88-16" value="" style="rounded=0;whiteSpace=wrap;html=1;strokeWidth=2;fillColor=none;dashed=1;" vertex="1" parent="rgw8zif3fMwUPYTsho88-17">
          <mxGeometry width="220" height="215" as="geometry"/>
        </mxCell>
        <mxCell id="rgw8zif3fMwUPYTsho88-18" value="" style="endArrow=classic;html=1;exitX=1;exitY=0.5;exitDx=0;exitDy=0;entryX=0;entryY=0.5;entryDx=0;entryDy=0;" edge="1" parent="1" source="rgw8zif3fMwUPYTsho88-6" target="rgw8zif3fMwUPYTsho88-16">
          <mxGeometry width="50" height="50" relative="1" as="geometry">
            <mxPoint x="1030" y="1549" as="sourcePoint"/>
            <mxPoint x="1080" y="1499" as="targetPoint"/>
          </mxGeometry>
        </mxCell>
        <mxCell id="rgw8zif3fMwUPYTsho88-26" value="" style="group" vertex="1" connectable="0" parent="1">
          <mxGeometry x="1140" y="769" width="199" height="190" as="geometry"/>
        </mxCell>
        <mxCell id="rgw8zif3fMwUPYTsho88-24" value="" style="group" vertex="1" connectable="0" parent="rgw8zif3fMwUPYTsho88-26">
          <mxGeometry x="9" y="12" width="180" height="170" as="geometry"/>
        </mxCell>
        <mxCell id="rgw8zif3fMwUPYTsho88-20" value="&lt;h3&gt;&lt;span style=&quot;font-size: 15px&quot;&gt;cache-proxy&lt;/span&gt;&lt;/h3&gt;" style="rounded=1;whiteSpace=wrap;html=1;" vertex="1" parent="rgw8zif3fMwUPYTsho88-24">
          <mxGeometry x="10" width="160" height="70" as="geometry"/>
        </mxCell>
        <mxCell id="rgw8zif3fMwUPYTsho88-21" value="&lt;font style=&quot;font-size: 15px&quot;&gt;&lt;b&gt;redis-clusters&lt;/b&gt;&lt;/font&gt;" style="ellipse;shape=cloud;whiteSpace=wrap;html=1;strokeWidth=1;fillColor=none;" vertex="1" parent="rgw8zif3fMwUPYTsho88-24">
          <mxGeometry y="90" width="180" height="80" as="geometry"/>
        </mxCell>
        <mxCell id="rgw8zif3fMwUPYTsho88-23" value="" style="endArrow=classic;html=1;exitX=0.5;exitY=1;exitDx=0;exitDy=0;entryX=0.4;entryY=0.1;entryDx=0;entryDy=0;entryPerimeter=0;" edge="1" parent="rgw8zif3fMwUPYTsho88-24" source="rgw8zif3fMwUPYTsho88-20" target="rgw8zif3fMwUPYTsho88-21">
          <mxGeometry width="50" height="50" relative="1" as="geometry">
            <mxPoint x="240" y="120" as="sourcePoint"/>
            <mxPoint x="290" y="70" as="targetPoint"/>
          </mxGeometry>
        </mxCell>
        <mxCell id="rgw8zif3fMwUPYTsho88-25" value="" style="rounded=0;whiteSpace=wrap;html=1;strokeWidth=2;fillColor=none;dashed=1;" vertex="1" parent="rgw8zif3fMwUPYTsho88-26">
          <mxGeometry width="199" height="190" as="geometry"/>
        </mxCell>
        <mxCell id="rgw8zif3fMwUPYTsho88-27" value="&lt;h3&gt;&lt;font style=&quot;font-size: 15px&quot;&gt;request-parser&lt;/font&gt;&lt;/h3&gt;" style="rounded=1;whiteSpace=wrap;html=1;" vertex="1" parent="1">
          <mxGeometry x="860.5" y="1029" width="160" height="70" as="geometry"/>
        </mxCell>
        <mxCell id="rgw8zif3fMwUPYTsho88-28" value="" style="group" vertex="1" connectable="0" parent="1">
          <mxGeometry x="790" y="1398.5" width="220" height="250" as="geometry"/>
        </mxCell>
        <mxCell id="rgw8zif3fMwUPYTsho88-6" value="" style="rounded=0;whiteSpace=wrap;html=1;fillColor=none;dashed=1;strokeWidth=2;" vertex="1" parent="rgw8zif3fMwUPYTsho88-28">
          <mxGeometry width="220" height="250" as="geometry"/>
        </mxCell>
        <mxCell id="rgw8zif3fMwUPYTsho88-3" value="&lt;h3&gt;&lt;font style=&quot;font-size: 15px&quot;&gt;es-jdbc-executor&lt;/font&gt;&lt;/h3&gt;" style="rounded=1;whiteSpace=wrap;html=1;" vertex="1" parent="rgw8zif3fMwUPYTsho88-28">
          <mxGeometry x="30" y="17.5" width="160" height="60" as="geometry"/>
        </mxCell>
        <mxCell id="rgw8zif3fMwUPYTsho88-4" value="&lt;h3&gt;&lt;font style=&quot;font-size: 15px&quot;&gt;phoenix-jdbc-executor&lt;/font&gt;&lt;/h3&gt;" style="rounded=1;whiteSpace=wrap;html=1;" vertex="1" parent="rgw8zif3fMwUPYTsho88-28">
          <mxGeometry x="20" y="90" width="180" height="70" as="geometry"/>
        </mxCell>
        <mxCell id="rgw8zif3fMwUPYTsho88-5" value="&lt;h3&gt;&lt;font style=&quot;font-size: 15px&quot;&gt;presto-jdbc-executor&lt;/font&gt;&lt;/h3&gt;" style="rounded=1;whiteSpace=wrap;html=1;" vertex="1" parent="rgw8zif3fMwUPYTsho88-28">
          <mxGeometry x="20" y="175.5" width="180" height="60" as="geometry"/>
        </mxCell>
        <mxCell id="rgw8zif3fMwUPYTsho88-30" value="" style="edgeStyle=elbowEdgeStyle;elbow=vertical;endArrow=classic;html=1;entryX=0.5;entryY=1;entryDx=0;entryDy=0;" edge="1" parent="1" source="rgw8zif3fMwUPYTsho88-3" target="rgw8zif3fMwUPYTsho88-25">
          <mxGeometry width="50" height="50" relative="1" as="geometry">
            <mxPoint x="930" y="1379" as="sourcePoint"/>
            <mxPoint x="980" y="1329" as="targetPoint"/>
            <Array as="points">
              <mxPoint x="900" y="1289"/>
            </Array>
          </mxGeometry>
        </mxCell>
        <mxCell id="rgw8zif3fMwUPYTsho88-32" value="" style="endArrow=classic;html=1;exitX=1;exitY=0.5;exitDx=0;exitDy=0;entryX=0;entryY=0.5;entryDx=0;entryDy=0;" edge="1" parent="1" source="SC0ZEZG3hTBKobqkoywg-2" target="rgw8zif3fMwUPYTsho88-27">
          <mxGeometry width="50" height="50" relative="1" as="geometry">
            <mxPoint x="820" y="1089" as="sourcePoint"/>
            <mxPoint x="930" y="999" as="targetPoint"/>
          </mxGeometry>
        </mxCell>
        <mxCell id="rgw8zif3fMwUPYTsho88-33" value="&lt;span style=&quot;font-size: 15px&quot;&gt;&lt;b&gt;sjs-manager&lt;/b&gt;&lt;/span&gt;" style="rounded=1;whiteSpace=wrap;html=1;" vertex="1" parent="1">
          <mxGeometry x="860.5" y="849" width="160" height="70" as="geometry"/>
        </mxCell>
        <mxCell id="rgw8zif3fMwUPYTsho88-34" value="" style="endArrow=classic;html=1;exitX=1;exitY=0.5;exitDx=0;exitDy=0;entryX=0;entryY=0.5;entryDx=0;entryDy=0;" edge="1" parent="1" source="SC0ZEZG3hTBKobqkoywg-2" target="rgw8zif3fMwUPYTsho88-33">
          <mxGeometry width="50" height="50" relative="1" as="geometry">
            <mxPoint x="810" y="999" as="sourcePoint"/>
            <mxPoint x="860" y="949" as="targetPoint"/>
          </mxGeometry>
        </mxCell>
        <mxCell id="rgw8zif3fMwUPYTsho88-35" value="" style="endArrow=classic;html=1;exitX=1;exitY=0.5;exitDx=0;exitDy=0;entryX=0;entryY=0.5;entryDx=0;entryDy=0;" edge="1" parent="1" source="SC0ZEZG3hTBKobqkoywg-3" target="rgw8zif3fMwUPYTsho88-33">
          <mxGeometry width="50" height="50" relative="1" as="geometry">
            <mxPoint x="890" y="779" as="sourcePoint"/>
            <mxPoint x="940" y="729" as="targetPoint"/>
          </mxGeometry>
        </mxCell>
        <mxCell id="rgw8zif3fMwUPYTsho88-36" value="" style="edgeStyle=segmentEdgeStyle;endArrow=classic;html=1;exitX=1;exitY=0.5;exitDx=0;exitDy=0;entryX=0.5;entryY=1;entryDx=0;entryDy=0;" edge="1" parent="1" source="rgw8zif3fMwUPYTsho88-27" target="rgw8zif3fMwUPYTsho88-25">
          <mxGeometry width="50" height="50" relative="1" as="geometry">
            <mxPoint x="1040" y="1079" as="sourcePoint"/>
            <mxPoint x="1090" y="1029" as="targetPoint"/>
          </mxGeometry>
        </mxCell>
        <mxCell id="rgw8zif3fMwUPYTsho88-37" value="&lt;span style=&quot;font-size: 15px&quot;&gt;&lt;b&gt;meta-manager&lt;/b&gt;&lt;/span&gt;" style="rounded=1;whiteSpace=wrap;html=1;" vertex="1" parent="1">
          <mxGeometry x="950" y="540" width="160" height="70" as="geometry"/>
        </mxCell>
        <mxCell id="rgw8zif3fMwUPYTsho88-38" value="&lt;span style=&quot;font-size: 15px&quot;&gt;&lt;b&gt;meta-tracker&lt;/b&gt;&lt;/span&gt;" style="rounded=1;whiteSpace=wrap;html=1;" vertex="1" parent="1">
          <mxGeometry x="950" y="370" width="160" height="70" as="geometry"/>
        </mxCell>
        <mxCell id="rgw8zif3fMwUPYTsho88-39" value="" style="edgeStyle=segmentEdgeStyle;endArrow=classic;html=1;exitX=1;exitY=0.5;exitDx=0;exitDy=0;entryX=0.5;entryY=0;entryDx=0;entryDy=0;" edge="1" parent="1" source="rgw8zif3fMwUPYTsho88-37" target="rgw8zif3fMwUPYTsho88-25">
          <mxGeometry width="50" height="50" relative="1" as="geometry">
            <mxPoint x="1250" y="690" as="sourcePoint"/>
            <mxPoint x="1300" y="640" as="targetPoint"/>
          </mxGeometry>
        </mxCell>
        <mxCell id="rgw8zif3fMwUPYTsho88-40" value="" style="endArrow=classic;html=1;exitX=0.5;exitY=0;exitDx=0;exitDy=0;entryX=0.5;entryY=1;entryDx=0;entryDy=0;" edge="1" parent="1" source="rgw8zif3fMwUPYTsho88-37" target="rgw8zif3fMwUPYTsho88-38">
          <mxGeometry width="50" height="50" relative="1" as="geometry">
            <mxPoint x="1100" y="520" as="sourcePoint"/>
            <mxPoint x="1150" y="470" as="targetPoint"/>
          </mxGeometry>
        </mxCell>
        <mxCell id="rgw8zif3fMwUPYTsho88-41" value="" style="endArrow=classic;html=1;exitX=1;exitY=0.5;exitDx=0;exitDy=0;entryX=0;entryY=0.5;entryDx=0;entryDy=0;" edge="1" parent="1" source="SC0ZEZG3hTBKobqkoywg-3" target="rgw8zif3fMwUPYTsho88-37">
          <mxGeometry width="50" height="50" relative="1" as="geometry">
            <mxPoint x="840" y="720" as="sourcePoint"/>
            <mxPoint x="890" y="670" as="targetPoint"/>
          </mxGeometry>
        </mxCell>
        <mxCell id="rgw8zif3fMwUPYTsho88-42" value="" style="endArrow=classic;html=1;exitX=1;exitY=0.5;exitDx=0;exitDy=0;entryX=0;entryY=0.5;entryDx=0;entryDy=0;" edge="1" parent="1" source="SC0ZEZG3hTBKobqkoywg-3" target="rgw8zif3fMwUPYTsho88-38">
          <mxGeometry width="50" height="50" relative="1" as="geometry">
            <mxPoint x="750" y="639" as="sourcePoint"/>
            <mxPoint x="910" y="500" as="targetPoint"/>
          </mxGeometry>
        </mxCell>
        <mxCell id="rgw8zif3fMwUPYTsho88-43" value="" style="edgeStyle=segmentEdgeStyle;endArrow=classic;html=1;exitX=1;exitY=0.5;exitDx=0;exitDy=0;entryX=0.5;entryY=0;entryDx=0;entryDy=0;" edge="1" parent="1" source="SC0ZEZG3hTBKobqkoywg-3" target="rgw8zif3fMwUPYTsho88-25">
          <mxGeometry width="50" height="50" relative="1" as="geometry">
            <mxPoint x="1010" y="770" as="sourcePoint"/>
            <mxPoint x="1240" y="770" as="targetPoint"/>
          </mxGeometry>
        </mxCell>
        <mxCell id="rgw8zif3fMwUPYTsho88-49" value="" style="group" vertex="1" connectable="0" parent="1">
          <mxGeometry x="880" y="180" width="289.5" height="120" as="geometry"/>
        </mxCell>
        <mxCell id="rgw8zif3fMwUPYTsho88-44" value="&lt;font style=&quot;font-size: 15px&quot;&gt;&lt;b&gt;hive&lt;/b&gt;&lt;/font&gt;" style="ellipse;shape=cloud;whiteSpace=wrap;html=1;strokeWidth=1;fillColor=none;" vertex="1" parent="rgw8zif3fMwUPYTsho88-49">
          <mxGeometry width="120" height="80" as="geometry"/>
        </mxCell>
        <mxCell id="rgw8zif3fMwUPYTsho88-45" value="&lt;font style=&quot;font-size: 15px&quot;&gt;&lt;b&gt;hbase&lt;/b&gt;&lt;/font&gt;" style="ellipse;shape=cloud;whiteSpace=wrap;html=1;strokeWidth=1;" vertex="1" parent="rgw8zif3fMwUPYTsho88-49">
          <mxGeometry x="39.5" y="40" width="120" height="80" as="geometry"/>
        </mxCell>
        <mxCell id="rgw8zif3fMwUPYTsho88-46" value="&lt;font style=&quot;font-size: 15px&quot;&gt;&lt;b&gt;es&lt;/b&gt;&lt;/font&gt;" style="ellipse;shape=cloud;whiteSpace=wrap;html=1;strokeWidth=1;" vertex="1" parent="rgw8zif3fMwUPYTsho88-49">
          <mxGeometry x="80" width="120" height="80" as="geometry"/>
        </mxCell>
        <mxCell id="rgw8zif3fMwUPYTsho88-47" value="&lt;font style=&quot;font-size: 15px&quot;&gt;&lt;b&gt;kudu&lt;/b&gt;&lt;/font&gt;" style="ellipse;shape=cloud;whiteSpace=wrap;html=1;strokeWidth=1;" vertex="1" parent="rgw8zif3fMwUPYTsho88-49">
          <mxGeometry x="119.5" y="40" width="120" height="80" as="geometry"/>
        </mxCell>
        <mxCell id="rgw8zif3fMwUPYTsho88-48" value="&lt;font style=&quot;font-size: 15px&quot;&gt;&lt;b&gt;phoneix&lt;br&gt;&lt;/b&gt;&lt;/font&gt;" style="ellipse;shape=cloud;whiteSpace=wrap;html=1;strokeWidth=1;" vertex="1" parent="rgw8zif3fMwUPYTsho88-49">
          <mxGeometry x="169.5" y="10" width="120" height="80" as="geometry"/>
        </mxCell>
        <mxCell id="rgw8zif3fMwUPYTsho88-50" value="" style="endArrow=classic;html=1;exitX=0.5;exitY=0;exitDx=0;exitDy=0;entryX=0.31;entryY=0.8;entryDx=0;entryDy=0;entryPerimeter=0;" edge="1" parent="1" source="rgw8zif3fMwUPYTsho88-38" target="rgw8zif3fMwUPYTsho88-47">
          <mxGeometry width="50" height="50" relative="1" as="geometry">
            <mxPoint x="1110" y="370" as="sourcePoint"/>
            <mxPoint x="1160" y="320" as="targetPoint"/>
          </mxGeometry>
        </mxCell>
      </root>
    </mxGraphModel>
  </diagram>
</mxfile>
